<svg xmlns="http://www.w3.org/2000/svg" xmlns:xlink="http://www.w3.org/1999/xlink" contentStyleType="text/css" data-diagram-type="CLASS" height="708px" preserveAspectRatio="none" style="width:2374px;height:708px;background:#FFFFFF;" version="1.1" viewBox="0 0 2374 708" width="2374px" zoomAndPan="magnify"><defs/><g><!--cluster com--><g class="cluster" data-entity="com" data-source-line="7" data-uid="ent0004" id="cluster_com"><rect fill="none" height="695" rx="2.5" ry="2.5" style="stroke:#000000;stroke-width:1.5;" width="2361" x="7" y="7"/><text fill="#000000" font-family="sans-serif" font-size="14" font-weight="bold" lengthAdjust="spacing" textLength="32.5049" x="1171.2476" y="21.9951">com</text></g><!--cluster coderzclub--><g class="cluster" data-entity="coderzclub" data-source-line="6" data-uid="ent0002" id="cluster_coderzclub"><rect fill="none" height="628" rx="2.5" ry="2.5" style="stroke:#000000;stroke-width:1.5;" width="2313" x="31" y="50"/><text fill="#000000" font-family="sans-serif" font-size="14" font-weight="bold" lengthAdjust="spacing" textLength="85.5723" x="1144.7139" y="64.9951">coderzclub</text></g><!--cluster config--><g class="cluster" data-entity="config" data-source-line="10" data-uid="ent0005" id="cluster_config"><rect fill="none" height="437" rx="2.5" ry="2.5" style="stroke:#000000;stroke-width:1.5;" width="728" x="567" y="217"/><text fill="#000000" font-family="sans-serif" font-size="14" font-weight="bold" lengthAdjust="spacing" textLength="48.7949" x="906.6025" y="231.9951">config</text></g><!--cluster controller--><g class="cluster" data-entity="controller" data-source-line="20" data-uid="ent0013" id="cluster_controller"><rect fill="none" height="91" rx="2.5" ry="2.5" style="stroke:#000000;stroke-width:1.5;" width="1167" x="1153" y="93"/><text fill="#000000" font-family="sans-serif" font-size="14" font-weight="bold" lengthAdjust="spacing" textLength="77.0957" x="1697.9521" y="107.9951">controller</text></g><!--cluster dto--><g class="cluster" data-entity="dto" data-source-line="29" data-uid="ent0020" id="cluster_dto"><rect fill="none" height="91" rx="2.5" ry="2.5" style="stroke:#000000;stroke-width:1.5;" width="498" x="1335" y="217"/><text fill="#000000" font-family="sans-serif" font-size="14" font-weight="bold" lengthAdjust="spacing" textLength="26.332" x="1570.834" y="231.9951">dto</text></g><!--cluster model--><g class="cluster" data-entity="model" data-source-line="35" data-uid="ent0024" id="cluster_model"><rect fill="none" height="458" rx="2.5" ry="2.5" style="stroke:#000000;stroke-width:1.5;" width="472" x="55" y="93"/><text fill="#000000" font-family="sans-serif" font-size="14" font-weight="bold" lengthAdjust="spacing" textLength="48.5215" x="266.7393" y="107.9951">model</text></g><!--cluster repository--><g class="cluster" data-entity="repository" data-source-line="45" data-uid="ent0032" id="cluster_repository"><rect fill="none" height="91" rx="2.5" ry="2.5" style="stroke:#000000;stroke-width:1.5;" width="840" x="1333" y="357"/><text fill="#000000" font-family="sans-serif" font-size="14" font-weight="bold" lengthAdjust="spacing" textLength="81.5117" x="1712.2441" y="371.9951">repository</text></g><!--cluster service--><g class="cluster" data-entity="service" data-source-line="52" data-uid="ent0037" id="cluster_service"><rect fill="none" height="91" rx="2.5" ry="2.5" style="stroke:#000000;stroke-width:1.5;" width="373" x="1947" y="217"/><text fill="#000000" font-family="sans-serif" font-size="14" font-weight="bold" lengthAdjust="spacing" textLength="56.4512" x="2105.2744" y="231.9951">service</text></g><!--class CoderzClubApplication--><g class="entity" data-entity="CoderzClubApplication" data-source-line="7" data-uid="ent0003" id="entity_CoderzClubApplication"><rect fill="#F1F1F1" height="40" rx="2.5" ry="2.5" style="stroke:#181818;stroke-width:0.5;" width="190.5938" x="742.7" y="128"/><ellipse cx="757.7" cy="144" fill="#ADD1B2" rx="11" ry="11" style="stroke:#181818;stroke-width:1;"/><path d="M760.6688,149.6406 Q760.0906,149.9375 759.45,150.0781 Q758.8094,150.2344 758.1063,150.2344 Q755.6063,150.2344 754.2781,148.5938 Q752.9656,146.9375 752.9656,143.8125 Q752.9656,140.6875 754.2781,139.0313 Q755.6063,137.375 758.1063,137.375 Q758.8094,137.375 759.45,137.5313 Q760.1063,137.6875 760.6688,137.9844 L760.6688,140.7031 Q760.0438,140.125 759.45,139.8594 Q758.8563,139.5781 758.2313,139.5781 Q756.8875,139.5781 756.2,140.6563 Q755.5125,141.7188 755.5125,143.8125 Q755.5125,145.9063 756.2,146.9844 Q756.8875,148.0469 758.2313,148.0469 Q758.8563,148.0469 759.45,147.7813 Q760.0438,147.5 760.6688,146.9219 L760.6688,149.6406 Z " fill="#000000"/><text fill="#000000" font-family="sans-serif" font-size="14" lengthAdjust="spacing" textLength="158.5938" x="771.7" y="148.8467">CoderzClubApplication</text><line style="stroke:#181818;stroke-width:0.5;" x1="743.7" x2="932.2938" y1="160" y2="160"/></g><!--class CorsConfig--><g class="entity" data-entity="CorsConfig" data-source-line="11" data-uid="ent0006" id="entity_CorsConfig"><rect fill="#F1F1F1" height="40" rx="2.5" ry="2.5" style="stroke:#181818;stroke-width:0.5;" width="108.3096" x="798.85" y="252"/><ellipse cx="813.85" cy="268" fill="#ADD1B2" rx="11" ry="11" style="stroke:#181818;stroke-width:1;"/><path d="M816.8188,273.6406 Q816.2406,273.9375 815.6,274.0781 Q814.9594,274.2344 814.2563,274.2344 Q811.7563,274.2344 810.4281,272.5938 Q809.1156,270.9375 809.1156,267.8125 Q809.1156,264.6875 810.4281,263.0313 Q811.7563,261.375 814.2563,261.375 Q814.9594,261.375 815.6,261.5313 Q816.2563,261.6875 816.8188,261.9844 L816.8188,264.7031 Q816.1938,264.125 815.6,263.8594 Q815.0063,263.5781 814.3813,263.5781 Q813.0375,263.5781 812.35,264.6563 Q811.6625,265.7188 811.6625,267.8125 Q811.6625,269.9063 812.35,270.9844 Q813.0375,272.0469 814.3813,272.0469 Q815.0063,272.0469 815.6,271.7813 Q816.1938,271.5 816.8188,270.9219 L816.8188,273.6406 Z " fill="#000000"/><text fill="#000000" font-family="sans-serif" font-size="14" lengthAdjust="spacing" textLength="76.3096" x="827.85" y="272.8467">CorsConfig</text><line style="stroke:#181818;stroke-width:0.5;" x1="799.85" x2="906.1596" y1="284" y2="284"/></g><!--class DataSeeder--><g class="entity" data-entity="DataSeeder" data-source-line="12" data-uid="ent0007" id="entity_DataSeeder"><rect fill="#F1F1F1" height="40" rx="2.5" ry="2.5" style="stroke:#181818;stroke-width:0.5;" width="114.7969" x="1164.6" y="252"/><ellipse cx="1179.6" cy="268" fill="#ADD1B2" rx="11" ry="11" style="stroke:#181818;stroke-width:1;"/><path d="M1182.5688,273.6406 Q1181.9906,273.9375 1181.35,274.0781 Q1180.7094,274.2344 1180.0063,274.2344 Q1177.5063,274.2344 1176.1781,272.5938 Q1174.8656,270.9375 1174.8656,267.8125 Q1174.8656,264.6875 1176.1781,263.0313 Q1177.5063,261.375 1180.0063,261.375 Q1180.7094,261.375 1181.35,261.5313 Q1182.0063,261.6875 1182.5688,261.9844 L1182.5688,264.7031 Q1181.9438,264.125 1181.35,263.8594 Q1180.7563,263.5781 1180.1313,263.5781 Q1178.7875,263.5781 1178.1,264.6563 Q1177.4125,265.7188 1177.4125,267.8125 Q1177.4125,269.9063 1178.1,270.9844 Q1178.7875,272.0469 1180.1313,272.0469 Q1180.7563,272.0469 1181.35,271.7813 Q1181.9438,271.5 1182.5688,270.9219 L1182.5688,273.6406 Z " fill="#000000"/><text fill="#000000" font-family="sans-serif" font-size="14" lengthAdjust="spacing" textLength="82.7969" x="1193.6" y="272.8467">DataSeeder</text><line style="stroke:#181818;stroke-width:0.5;" x1="1165.6" x2="1278.3969" y1="284" y2="284"/></g><!--class JwtFilter--><g class="entity" data-entity="JwtFilter" data-source-line="13" data-uid="ent0008" id="entity_JwtFilter"><rect fill="#F1F1F1" height="40" rx="2.5" ry="2.5" style="stroke:#181818;stroke-width:0.5;" width="88.7588" x="628.62" y="495"/><ellipse cx="643.62" cy="511" fill="#ADD1B2" rx="11" ry="11" style="stroke:#181818;stroke-width:1;"/><path d="M646.5888,516.6406 Q646.0106,516.9375 645.37,517.0781 Q644.7294,517.2344 644.0263,517.2344 Q641.5263,517.2344 640.1981,515.5938 Q638.8856,513.9375 638.8856,510.8125 Q638.8856,507.6875 640.1981,506.0313 Q641.5263,504.375 644.0263,504.375 Q644.7294,504.375 645.37,504.5313 Q646.0263,504.6875 646.5888,504.9844 L646.5888,507.7031 Q645.9638,507.125 645.37,506.8594 Q644.7763,506.5781 644.1513,506.5781 Q642.8075,506.5781 642.12,507.6563 Q641.4325,508.7188 641.4325,510.8125 Q641.4325,512.9063 642.12,513.9844 Q642.8075,515.0469 644.1513,515.0469 Q644.7763,515.0469 645.37,514.7813 Q645.9638,514.5 646.5888,513.9219 L646.5888,516.6406 Z " fill="#000000"/><text fill="#000000" font-family="sans-serif" font-size="14" lengthAdjust="spacing" textLength="56.7588" x="657.62" y="515.8467">JwtFilter</text><line style="stroke:#181818;stroke-width:0.5;" x1="629.62" x2="716.3788" y1="527" y2="527"/></g><!--class JwtUtil--><g class="entity" data-entity="JwtUtil" data-source-line="14" data-uid="ent0009" id="entity_JwtUtil"><rect fill="#F1F1F1" height="40" rx="2.5" ry="2.5" style="stroke:#181818;stroke-width:0.5;" width="76.584" x="634.71" y="598"/><ellipse cx="649.71" cy="614" fill="#ADD1B2" rx="11" ry="11" style="stroke:#181818;stroke-width:1;"/><path d="M652.6788,619.6406 Q652.1006,619.9375 651.46,620.0781 Q650.8194,620.2344 650.1163,620.2344 Q647.6163,620.2344 646.2881,618.5938 Q644.9756,616.9375 644.9756,613.8125 Q644.9756,610.6875 646.2881,609.0313 Q647.6163,607.375 650.1163,607.375 Q650.8194,607.375 651.46,607.5313 Q652.1163,607.6875 652.6788,607.9844 L652.6788,610.7031 Q652.0538,610.125 651.46,609.8594 Q650.8663,609.5781 650.2413,609.5781 Q648.8975,609.5781 648.21,610.6563 Q647.5225,611.7188 647.5225,613.8125 Q647.5225,615.9063 648.21,616.9844 Q648.8975,618.0469 650.2413,618.0469 Q650.8663,618.0469 651.46,617.7813 Q652.0538,617.5 652.6788,616.9219 L652.6788,619.6406 Z " fill="#000000"/><text fill="#000000" font-family="sans-serif" font-size="14" lengthAdjust="spacing" textLength="44.584" x="663.71" y="618.8467">JwtUtil</text><line style="stroke:#181818;stroke-width:0.5;" x1="635.71" x2="710.294" y1="630" y2="630"/></g><!--class ProblemDataInitializer--><g class="entity" data-entity="ProblemDataInitializer" data-source-line="15" data-uid="ent0010" id="entity_ProblemDataInitializer"><rect fill="#F1F1F1" height="40" rx="2.5" ry="2.5" style="stroke:#181818;stroke-width:0.5;" width="187.5654" x="942.22" y="252"/><ellipse cx="957.22" cy="268" fill="#ADD1B2" rx="11" ry="11" style="stroke:#181818;stroke-width:1;"/><path d="M960.1888,273.6406 Q959.6106,273.9375 958.97,274.0781 Q958.3294,274.2344 957.6263,274.2344 Q955.1263,274.2344 953.7981,272.5938 Q952.4856,270.9375 952.4856,267.8125 Q952.4856,264.6875 953.7981,263.0313 Q955.1263,261.375 957.6263,261.375 Q958.3294,261.375 958.97,261.5313 Q959.6263,261.6875 960.1888,261.9844 L960.1888,264.7031 Q959.5638,264.125 958.97,263.8594 Q958.3763,263.5781 957.7513,263.5781 Q956.4075,263.5781 955.72,264.6563 Q955.0325,265.7188 955.0325,267.8125 Q955.0325,269.9063 955.72,270.9844 Q956.4075,272.0469 957.7513,272.0469 Q958.3763,272.0469 958.97,271.7813 Q959.5638,271.5 960.1888,270.9219 L960.1888,273.6406 Z " fill="#000000"/><text fill="#000000" font-family="sans-serif" font-size="14" lengthAdjust="spacing" textLength="155.5654" x="971.22" y="272.8467">ProblemDataInitializer</text><line style="stroke:#181818;stroke-width:0.5;" x1="943.22" x2="1128.7854" y1="284" y2="284"/></g><!--class RequestLoggingFilter--><g class="entity" data-entity="RequestLoggingFilter" data-source-line="16" data-uid="ent0011" id="entity_RequestLoggingFilter"><rect fill="#F1F1F1" height="40" rx="2.5" ry="2.5" style="stroke:#181818;stroke-width:0.5;" width="180.9756" x="582.51" y="252"/><ellipse cx="597.51" cy="268" fill="#ADD1B2" rx="11" ry="11" style="stroke:#181818;stroke-width:1;"/><path d="M600.4788,273.6406 Q599.9006,273.9375 599.26,274.0781 Q598.6194,274.2344 597.9163,274.2344 Q595.4163,274.2344 594.0881,272.5938 Q592.7756,270.9375 592.7756,267.8125 Q592.7756,264.6875 594.0881,263.0313 Q595.4163,261.375 597.9163,261.375 Q598.6194,261.375 599.26,261.5313 Q599.9163,261.6875 600.4788,261.9844 L600.4788,264.7031 Q599.8538,264.125 599.26,263.8594 Q598.6663,263.5781 598.0413,263.5781 Q596.6975,263.5781 596.01,264.6563 Q595.3225,265.7188 595.3225,267.8125 Q595.3225,269.9063 596.01,270.9844 Q596.6975,272.0469 598.0413,272.0469 Q598.6663,272.0469 599.26,271.7813 Q599.8538,271.5 600.4788,270.9219 L600.4788,273.6406 Z " fill="#000000"/><text fill="#000000" font-family="sans-serif" font-size="14" lengthAdjust="spacing" textLength="148.9756" x="611.51" y="272.8467">RequestLoggingFilter</text><line style="stroke:#181818;stroke-width:0.5;" x1="583.51" x2="762.4856" y1="284" y2="284"/></g><!--class SecurityConfig--><g class="entity" data-entity="SecurityConfig" data-source-line="17" data-uid="ent0012" id="entity_SecurityConfig"><rect fill="#F1F1F1" height="40" rx="2.5" ry="2.5" style="stroke:#181818;stroke-width:0.5;" width="134.4092" x="605.8" y="392"/><ellipse cx="620.8" cy="408" fill="#ADD1B2" rx="11" ry="11" style="stroke:#181818;stroke-width:1;"/><path d="M623.7688,413.6406 Q623.1906,413.9375 622.55,414.0781 Q621.9094,414.2344 621.2063,414.2344 Q618.7063,414.2344 617.3781,412.5938 Q616.0656,410.9375 616.0656,407.8125 Q616.0656,404.6875 617.3781,403.0313 Q618.7063,401.375 621.2063,401.375 Q621.9094,401.375 622.55,401.5313 Q623.2063,401.6875 623.7688,401.9844 L623.7688,404.7031 Q623.1438,404.125 622.55,403.8594 Q621.9563,403.5781 621.3313,403.5781 Q619.9875,403.5781 619.3,404.6563 Q618.6125,405.7188 618.6125,407.8125 Q618.6125,409.9063 619.3,410.9844 Q619.9875,412.0469 621.3313,412.0469 Q621.9563,412.0469 622.55,411.7813 Q623.1438,411.5 623.7688,410.9219 L623.7688,413.6406 Z " fill="#000000"/><text fill="#000000" font-family="sans-serif" font-size="14" lengthAdjust="spacing" textLength="102.4092" x="634.8" y="412.8467">SecurityConfig</text><line style="stroke:#181818;stroke-width:0.5;" x1="606.8" x2="739.2092" y1="424" y2="424"/></g><!--class AdminController--><g class="entity" data-entity="AdminController" data-source-line="21" data-uid="ent0014" id="entity_AdminController"><rect fill="#F1F1F1" height="40" rx="2.5" ry="2.5" style="stroke:#181818;stroke-width:0.5;" width="146.0371" x="2157.98" y="128"/><ellipse cx="2172.98" cy="144" fill="#ADD1B2" rx="11" ry="11" style="stroke:#181818;stroke-width:1;"/><path d="M2175.9488,149.6406 Q2175.3706,149.9375 2174.73,150.0781 Q2174.0894,150.2344 2173.3863,150.2344 Q2170.8863,150.2344 2169.5581,148.5938 Q2168.2456,146.9375 2168.2456,143.8125 Q2168.2456,140.6875 2169.5581,139.0313 Q2170.8863,137.375 2173.3863,137.375 Q2174.0894,137.375 2174.73,137.5313 Q2175.3863,137.6875 2175.9488,137.9844 L2175.9488,140.7031 Q2175.3238,140.125 2174.73,139.8594 Q2174.1363,139.5781 2173.5113,139.5781 Q2172.1675,139.5781 2171.48,140.6563 Q2170.7925,141.7188 2170.7925,143.8125 Q2170.7925,145.9063 2171.48,146.9844 Q2172.1675,148.0469 2173.5113,148.0469 Q2174.1363,148.0469 2174.73,147.7813 Q2175.3238,147.5 2175.9488,146.9219 L2175.9488,149.6406 Z " fill="#000000"/><text fill="#000000" font-family="sans-serif" font-size="14" lengthAdjust="spacing" textLength="114.0371" x="2186.98" y="148.8467">AdminController</text><line style="stroke:#181818;stroke-width:0.5;" x1="2158.98" x2="2303.0171" y1="160" y2="160"/></g><!--class AuthController--><g class="entity" data-entity="AuthController" data-source-line="22" data-uid="ent0015" id="entity_AuthController"><rect fill="#F1F1F1" height="40" rx="2.5" ry="2.5" style="stroke:#181818;stroke-width:0.5;" width="133.9854" x="1362.01" y="128"/><ellipse cx="1377.01" cy="144" fill="#ADD1B2" rx="11" ry="11" style="stroke:#181818;stroke-width:1;"/><path d="M1379.9788,149.6406 Q1379.4006,149.9375 1378.76,150.0781 Q1378.1194,150.2344 1377.4163,150.2344 Q1374.9163,150.2344 1373.5881,148.5938 Q1372.2756,146.9375 1372.2756,143.8125 Q1372.2756,140.6875 1373.5881,139.0313 Q1374.9163,137.375 1377.4163,137.375 Q1378.1194,137.375 1378.76,137.5313 Q1379.4163,137.6875 1379.9788,137.9844 L1379.9788,140.7031 Q1379.3538,140.125 1378.76,139.8594 Q1378.1663,139.5781 1377.5413,139.5781 Q1376.1975,139.5781 1375.51,140.6563 Q1374.8225,141.7188 1374.8225,143.8125 Q1374.8225,145.9063 1375.51,146.9844 Q1376.1975,148.0469 1377.5413,148.0469 Q1378.1663,148.0469 1378.76,147.7813 Q1379.3538,147.5 1379.9788,146.9219 L1379.9788,149.6406 Z " fill="#000000"/><text fill="#000000" font-family="sans-serif" font-size="14" lengthAdjust="spacing" textLength="101.9854" x="1391.01" y="148.8467">AuthController</text><line style="stroke:#181818;stroke-width:0.5;" x1="1363.01" x2="1494.9954" y1="160" y2="160"/></g><!--class ProblemBundleController--><g class="entity" data-entity="ProblemBundleController" data-source-line="23" data-uid="ent0016" id="entity_ProblemBundleController"><rect fill="#F1F1F1" height="40" rx="2.5" ry="2.5" style="stroke:#181818;stroke-width:0.5;" width="207.7041" x="1747.15" y="128"/><ellipse cx="1762.15" cy="144" fill="#ADD1B2" rx="11" ry="11" style="stroke:#181818;stroke-width:1;"/><path d="M1765.1188,149.6406 Q1764.5406,149.9375 1763.9,150.0781 Q1763.2594,150.2344 1762.5563,150.2344 Q1760.0563,150.2344 1758.7281,148.5938 Q1757.4156,146.9375 1757.4156,143.8125 Q1757.4156,140.6875 1758.7281,139.0313 Q1760.0563,137.375 1762.5563,137.375 Q1763.2594,137.375 1763.9,137.5313 Q1764.5563,137.6875 1765.1188,137.9844 L1765.1188,140.7031 Q1764.4938,140.125 1763.9,139.8594 Q1763.3063,139.5781 1762.6813,139.5781 Q1761.3375,139.5781 1760.65,140.6563 Q1759.9625,141.7188 1759.9625,143.8125 Q1759.9625,145.9063 1760.65,146.9844 Q1761.3375,148.0469 1762.6813,148.0469 Q1763.3063,148.0469 1763.9,147.7813 Q1764.4938,147.5 1765.1188,146.9219 L1765.1188,149.6406 Z " fill="#000000"/><text fill="#000000" font-family="sans-serif" font-size="14" lengthAdjust="spacing" textLength="175.7041" x="1776.15" y="148.8467">ProblemBundleController</text><line style="stroke:#181818;stroke-width:0.5;" x1="1748.15" x2="1953.8541" y1="160" y2="160"/></g><!--class ProblemController--><g class="entity" data-entity="ProblemController" data-source-line="24" data-uid="ent0017" id="entity_ProblemController"><rect fill="#F1F1F1" height="40" rx="2.5" ry="2.5" style="stroke:#181818;stroke-width:0.5;" width="158.9639" x="1168.52" y="128"/><ellipse cx="1183.52" cy="144" fill="#ADD1B2" rx="11" ry="11" style="stroke:#181818;stroke-width:1;"/><path d="M1186.4888,149.6406 Q1185.9106,149.9375 1185.27,150.0781 Q1184.6294,150.2344 1183.9263,150.2344 Q1181.4263,150.2344 1180.0981,148.5938 Q1178.7856,146.9375 1178.7856,143.8125 Q1178.7856,140.6875 1180.0981,139.0313 Q1181.4263,137.375 1183.9263,137.375 Q1184.6294,137.375 1185.27,137.5313 Q1185.9263,137.6875 1186.4888,137.9844 L1186.4888,140.7031 Q1185.8638,140.125 1185.27,139.8594 Q1184.6763,139.5781 1184.0513,139.5781 Q1182.7075,139.5781 1182.02,140.6563 Q1181.3325,141.7188 1181.3325,143.8125 Q1181.3325,145.9063 1182.02,146.9844 Q1182.7075,148.0469 1184.0513,148.0469 Q1184.6763,148.0469 1185.27,147.7813 Q1185.8638,147.5 1186.4888,146.9219 L1186.4888,149.6406 Z " fill="#000000"/><text fill="#000000" font-family="sans-serif" font-size="14" lengthAdjust="spacing" textLength="126.9639" x="1197.52" y="148.8467">ProblemController</text><line style="stroke:#181818;stroke-width:0.5;" x1="1169.52" x2="1326.4839" y1="160" y2="160"/></g><!--class SubmissionController--><g class="entity" data-entity="SubmissionController" data-source-line="25" data-uid="ent0018" id="entity_SubmissionController"><rect fill="#F1F1F1" height="40" rx="2.5" ry="2.5" style="stroke:#181818;stroke-width:0.5;" width="181.2627" x="1531.37" y="128"/><ellipse cx="1546.37" cy="144" fill="#ADD1B2" rx="11" ry="11" style="stroke:#181818;stroke-width:1;"/><path d="M1549.3388,149.6406 Q1548.7606,149.9375 1548.12,150.0781 Q1547.4794,150.2344 1546.7763,150.2344 Q1544.2763,150.2344 1542.9481,148.5938 Q1541.6356,146.9375 1541.6356,143.8125 Q1541.6356,140.6875 1542.9481,139.0313 Q1544.2763,137.375 1546.7763,137.375 Q1547.4794,137.375 1548.12,137.5313 Q1548.7763,137.6875 1549.3388,137.9844 L1549.3388,140.7031 Q1548.7138,140.125 1548.12,139.8594 Q1547.5263,139.5781 1546.9013,139.5781 Q1545.5575,139.5781 1544.87,140.6563 Q1544.1825,141.7188 1544.1825,143.8125 Q1544.1825,145.9063 1544.87,146.9844 Q1545.5575,148.0469 1546.9013,148.0469 Q1547.5263,148.0469 1548.12,147.7813 Q1548.7138,147.5 1549.3388,146.9219 L1549.3388,149.6406 Z " fill="#000000"/><text fill="#000000" font-family="sans-serif" font-size="14" lengthAdjust="spacing" textLength="149.2627" x="1560.37" y="148.8467">SubmissionController</text><line style="stroke:#181818;stroke-width:0.5;" x1="1532.37" x2="1711.6327" y1="160" y2="160"/></g><!--class UserController--><g class="entity" data-entity="UserController" data-source-line="26" data-uid="ent0019" id="entity_UserController"><rect fill="#F1F1F1" height="40" rx="2.5" ry="2.5" style="stroke:#181818;stroke-width:0.5;" width="133.083" x="1989.46" y="128"/><ellipse cx="2004.46" cy="144" fill="#ADD1B2" rx="11" ry="11" style="stroke:#181818;stroke-width:1;"/><path d="M2007.4288,149.6406 Q2006.8506,149.9375 2006.21,150.0781 Q2005.5694,150.2344 2004.8663,150.2344 Q2002.3663,150.2344 2001.0381,148.5938 Q1999.7256,146.9375 1999.7256,143.8125 Q1999.7256,140.6875 2001.0381,139.0313 Q2002.3663,137.375 2004.8663,137.375 Q2005.5694,137.375 2006.21,137.5313 Q2006.8663,137.6875 2007.4288,137.9844 L2007.4288,140.7031 Q2006.8038,140.125 2006.21,139.8594 Q2005.6163,139.5781 2004.9913,139.5781 Q2003.6475,139.5781 2002.96,140.6563 Q2002.2725,141.7188 2002.2725,143.8125 Q2002.2725,145.9063 2002.96,146.9844 Q2003.6475,148.0469 2004.9913,148.0469 Q2005.6163,148.0469 2006.21,147.7813 Q2006.8038,147.5 2007.4288,146.9219 L2007.4288,149.6406 Z " fill="#000000"/><text fill="#000000" font-family="sans-serif" font-size="14" lengthAdjust="spacing" textLength="101.083" x="2018.46" y="148.8467">UserController</text><line style="stroke:#181818;stroke-width:0.5;" x1="1990.46" x2="2121.543" y1="160" y2="160"/></g><!--class JwtResponse--><g class="entity" data-entity="JwtResponse" data-source-line="30" data-uid="ent0021" id="entity_JwtResponse"><rect fill="#F1F1F1" height="40" rx="2.5" ry="2.5" style="stroke:#181818;stroke-width:0.5;" width="120.9355" x="1696.53" y="252"/><ellipse cx="1711.53" cy="268" fill="#ADD1B2" rx="11" ry="11" style="stroke:#181818;stroke-width:1;"/><path d="M1714.4988,273.6406 Q1713.9206,273.9375 1713.28,274.0781 Q1712.6394,274.2344 1711.9363,274.2344 Q1709.4363,274.2344 1708.1081,272.5938 Q1706.7956,270.9375 1706.7956,267.8125 Q1706.7956,264.6875 1708.1081,263.0313 Q1709.4363,261.375 1711.9363,261.375 Q1712.6394,261.375 1713.28,261.5313 Q1713.9363,261.6875 1714.4988,261.9844 L1714.4988,264.7031 Q1713.8738,264.125 1713.28,263.8594 Q1712.6863,263.5781 1712.0613,263.5781 Q1710.7175,263.5781 1710.03,264.6563 Q1709.3425,265.7188 1709.3425,267.8125 Q1709.3425,269.9063 1710.03,270.9844 Q1710.7175,272.0469 1712.0613,272.0469 Q1712.6863,272.0469 1713.28,271.7813 Q1713.8738,271.5 1714.4988,270.9219 L1714.4988,273.6406 Z " fill="#000000"/><text fill="#000000" font-family="sans-serif" font-size="14" lengthAdjust="spacing" textLength="88.9355" x="1725.53" y="272.8467">JwtResponse</text><line style="stroke:#181818;stroke-width:0.5;" x1="1697.53" x2="1816.4655" y1="284" y2="284"/></g><!--class LoginRequest--><g class="entity" data-entity="LoginRequest" data-source-line="31" data-uid="ent0022" id="entity_LoginRequest"><rect fill="#F1F1F1" height="40" rx="2.5" ry="2.5" style="stroke:#181818;stroke-width:0.5;" width="127.5117" x="1351.24" y="252"/><ellipse cx="1366.24" cy="268" fill="#ADD1B2" rx="11" ry="11" style="stroke:#181818;stroke-width:1;"/><path d="M1369.2088,273.6406 Q1368.6306,273.9375 1367.99,274.0781 Q1367.3494,274.2344 1366.6463,274.2344 Q1364.1463,274.2344 1362.8181,272.5938 Q1361.5056,270.9375 1361.5056,267.8125 Q1361.5056,264.6875 1362.8181,263.0313 Q1364.1463,261.375 1366.6463,261.375 Q1367.3494,261.375 1367.99,261.5313 Q1368.6463,261.6875 1369.2088,261.9844 L1369.2088,264.7031 Q1368.5838,264.125 1367.99,263.8594 Q1367.3963,263.5781 1366.7713,263.5781 Q1365.4275,263.5781 1364.74,264.6563 Q1364.0525,265.7188 1364.0525,267.8125 Q1364.0525,269.9063 1364.74,270.9844 Q1365.4275,272.0469 1366.7713,272.0469 Q1367.3963,272.0469 1367.99,271.7813 Q1368.5838,271.5 1369.2088,270.9219 L1369.2088,273.6406 Z " fill="#000000"/><text fill="#000000" font-family="sans-serif" font-size="14" lengthAdjust="spacing" textLength="95.5117" x="1380.24" y="272.8467">LoginRequest</text><line style="stroke:#181818;stroke-width:0.5;" x1="1352.24" x2="1477.7517" y1="284" y2="284"/></g><!--class RegisterRequest--><g class="entity" data-entity="RegisterRequest" data-source-line="32" data-uid="ent0023" id="entity_RegisterRequest"><rect fill="#F1F1F1" height="40" rx="2.5" ry="2.5" style="stroke:#181818;stroke-width:0.5;" width="147.7666" x="1514.12" y="252"/><ellipse cx="1529.12" cy="268" fill="#ADD1B2" rx="11" ry="11" style="stroke:#181818;stroke-width:1;"/><path d="M1532.0888,273.6406 Q1531.5106,273.9375 1530.87,274.0781 Q1530.2294,274.2344 1529.5263,274.2344 Q1527.0263,274.2344 1525.6981,272.5938 Q1524.3856,270.9375 1524.3856,267.8125 Q1524.3856,264.6875 1525.6981,263.0313 Q1527.0263,261.375 1529.5263,261.375 Q1530.2294,261.375 1530.87,261.5313 Q1531.5263,261.6875 1532.0888,261.9844 L1532.0888,264.7031 Q1531.4638,264.125 1530.87,263.8594 Q1530.2763,263.5781 1529.6513,263.5781 Q1528.3075,263.5781 1527.62,264.6563 Q1526.9325,265.7188 1526.9325,267.8125 Q1526.9325,269.9063 1527.62,270.9844 Q1528.3075,272.0469 1529.6513,272.0469 Q1530.2763,272.0469 1530.87,271.7813 Q1531.4638,271.5 1532.0888,270.9219 L1532.0888,273.6406 Z " fill="#000000"/><text fill="#000000" font-family="sans-serif" font-size="14" lengthAdjust="spacing" textLength="115.7666" x="1543.12" y="272.8467">RegisterRequest</text><line style="stroke:#181818;stroke-width:0.5;" x1="1515.12" x2="1660.8866" y1="284" y2="284"/></g><!--class Parameter--><g class="entity" data-entity="Parameter" data-source-line="36" data-uid="ent0025" id="entity_Parameter"><rect fill="#F1F1F1" height="40" rx="2.5" ry="2.5" style="stroke:#181818;stroke-width:0.5;" width="105.4658" x="236.27" y="495"/><ellipse cx="251.27" cy="511" fill="#ADD1B2" rx="11" ry="11" style="stroke:#181818;stroke-width:1;"/><path d="M254.2388,516.6406 Q253.6606,516.9375 253.02,517.0781 Q252.3794,517.2344 251.6763,517.2344 Q249.1763,517.2344 247.8481,515.5938 Q246.5356,513.9375 246.5356,510.8125 Q246.5356,507.6875 247.8481,506.0313 Q249.1763,504.375 251.6763,504.375 Q252.3794,504.375 253.02,504.5313 Q253.6763,504.6875 254.2388,504.9844 L254.2388,507.7031 Q253.6138,507.125 253.02,506.8594 Q252.4263,506.5781 251.8013,506.5781 Q250.4575,506.5781 249.77,507.6563 Q249.0825,508.7188 249.0825,510.8125 Q249.0825,512.9063 249.77,513.9844 Q250.4575,515.0469 251.8013,515.0469 Q252.4263,515.0469 253.02,514.7813 Q253.6138,514.5 254.2388,513.9219 L254.2388,516.6406 Z " fill="#000000"/><text fill="#000000" font-family="sans-serif" font-size="14" lengthAdjust="spacing" textLength="73.4658" x="265.27" y="515.8467">Parameter</text><line style="stroke:#181818;stroke-width:0.5;" x1="237.27" x2="340.7358" y1="527" y2="527"/></g><!--class Problem--><g class="entity" data-entity="Problem" data-source-line="37" data-uid="ent0026" id="entity_Problem"><rect fill="#F1F1F1" height="40" rx="2.5" ry="2.5" style="stroke:#181818;stroke-width:0.5;" width="89.791" x="167.1" y="392"/><ellipse cx="182.1" cy="408" fill="#ADD1B2" rx="11" ry="11" style="stroke:#181818;stroke-width:1;"/><path d="M185.0688,413.6406 Q184.4906,413.9375 183.85,414.0781 Q183.2094,414.2344 182.5063,414.2344 Q180.0063,414.2344 178.6781,412.5938 Q177.3656,410.9375 177.3656,407.8125 Q177.3656,404.6875 178.6781,403.0313 Q180.0063,401.375 182.5063,401.375 Q183.2094,401.375 183.85,401.5313 Q184.5063,401.6875 185.0688,401.9844 L185.0688,404.7031 Q184.4438,404.125 183.85,403.8594 Q183.2563,403.5781 182.6313,403.5781 Q181.2875,403.5781 180.6,404.6563 Q179.9125,405.7188 179.9125,407.8125 Q179.9125,409.9063 180.6,410.9844 Q181.2875,412.0469 182.6313,412.0469 Q183.2563,412.0469 183.85,411.7813 Q184.4438,411.5 185.0688,410.9219 L185.0688,413.6406 Z " fill="#000000"/><text fill="#000000" font-family="sans-serif" font-size="14" lengthAdjust="spacing" textLength="57.791" x="196.1" y="412.8467">Problem</text><line style="stroke:#181818;stroke-width:0.5;" x1="168.1" x2="255.891" y1="424" y2="424"/></g><!--class ProblemBundle--><g class="entity" data-entity="ProblemBundle" data-source-line="38" data-uid="ent0027" id="entity_ProblemBundle"><rect fill="#F1F1F1" height="40" rx="2.5" ry="2.5" style="stroke:#181818;stroke-width:0.5;" width="138.5313" x="372.73" y="252"/><ellipse cx="387.73" cy="268" fill="#ADD1B2" rx="11" ry="11" style="stroke:#181818;stroke-width:1;"/><path d="M390.6988,273.6406 Q390.1206,273.9375 389.48,274.0781 Q388.8394,274.2344 388.1363,274.2344 Q385.6363,274.2344 384.3081,272.5938 Q382.9956,270.9375 382.9956,267.8125 Q382.9956,264.6875 384.3081,263.0313 Q385.6363,261.375 388.1363,261.375 Q388.8394,261.375 389.48,261.5313 Q390.1363,261.6875 390.6988,261.9844 L390.6988,264.7031 Q390.0738,264.125 389.48,263.8594 Q388.8863,263.5781 388.2613,263.5781 Q386.9175,263.5781 386.23,264.6563 Q385.5425,265.7188 385.5425,267.8125 Q385.5425,269.9063 386.23,270.9844 Q386.9175,272.0469 388.2613,272.0469 Q388.8863,272.0469 389.48,271.7813 Q390.0738,271.5 390.6988,270.9219 L390.6988,273.6406 Z " fill="#000000"/><text fill="#000000" font-family="sans-serif" font-size="14" lengthAdjust="spacing" textLength="106.5313" x="401.73" y="272.8467">ProblemBundle</text><line style="stroke:#181818;stroke-width:0.5;" x1="373.73" x2="510.2613" y1="284" y2="284"/></g><!--class Submission--><g class="entity" data-entity="Submission" data-source-line="39" data-uid="ent0028" id="entity_Submission"><rect fill="#F1F1F1" height="40" rx="2.5" ry="2.5" style="stroke:#181818;stroke-width:0.5;" width="112.0898" x="70.96" y="252"/><ellipse cx="85.96" cy="268" fill="#ADD1B2" rx="11" ry="11" style="stroke:#181818;stroke-width:1;"/><path d="M88.9288,273.6406 Q88.3506,273.9375 87.71,274.0781 Q87.0694,274.2344 86.3663,274.2344 Q83.8663,274.2344 82.5381,272.5938 Q81.2256,270.9375 81.2256,267.8125 Q81.2256,264.6875 82.5381,263.0313 Q83.8663,261.375 86.3663,261.375 Q87.0694,261.375 87.71,261.5313 Q88.3663,261.6875 88.9288,261.9844 L88.9288,264.7031 Q88.3038,264.125 87.71,263.8594 Q87.1163,263.5781 86.4913,263.5781 Q85.1475,263.5781 84.46,264.6563 Q83.7725,265.7188 83.7725,267.8125 Q83.7725,269.9063 84.46,270.9844 Q85.1475,272.0469 86.4913,272.0469 Q87.1163,272.0469 87.71,271.7813 Q88.3038,271.5 88.9288,270.9219 L88.9288,273.6406 Z " fill="#000000"/><text fill="#000000" font-family="sans-serif" font-size="14" lengthAdjust="spacing" textLength="80.0898" x="99.96" y="272.8467">Submission</text><line style="stroke:#181818;stroke-width:0.5;" x1="71.96" x2="182.0498" y1="284" y2="284"/></g><!--class Subscription--><g class="entity" data-entity="Subscription" data-source-line="40" data-uid="ent0029" id="entity_Subscription"><rect fill="#F1F1F1" height="40" rx="2.5" ry="2.5" style="stroke:#181818;stroke-width:0.5;" width="118.9873" x="218.51" y="252"/><ellipse cx="233.51" cy="268" fill="#ADD1B2" rx="11" ry="11" style="stroke:#181818;stroke-width:1;"/><path d="M236.4788,273.6406 Q235.9006,273.9375 235.26,274.0781 Q234.6194,274.2344 233.9163,274.2344 Q231.4163,274.2344 230.0881,272.5938 Q228.7756,270.9375 228.7756,267.8125 Q228.7756,264.6875 230.0881,263.0313 Q231.4163,261.375 233.9163,261.375 Q234.6194,261.375 235.26,261.5313 Q235.9163,261.6875 236.4788,261.9844 L236.4788,264.7031 Q235.8538,264.125 235.26,263.8594 Q234.6663,263.5781 234.0413,263.5781 Q232.6975,263.5781 232.01,264.6563 Q231.3225,265.7188 231.3225,267.8125 Q231.3225,269.9063 232.01,270.9844 Q232.6975,272.0469 234.0413,272.0469 Q234.6663,272.0469 235.26,271.7813 Q235.8538,271.5 236.4788,270.9219 L236.4788,273.6406 Z " fill="#000000"/><text fill="#000000" font-family="sans-serif" font-size="14" lengthAdjust="spacing" textLength="86.9873" x="247.51" y="272.8467">Subscription</text><line style="stroke:#181818;stroke-width:0.5;" x1="219.51" x2="336.4973" y1="284" y2="284"/></g><!--class TestCase--><g class="entity" data-entity="TestCase" data-source-line="41" data-uid="ent0030" id="entity_TestCase"><rect fill="#F1F1F1" height="40" rx="2.5" ry="2.5" style="stroke:#181818;stroke-width:0.5;" width="96.21" x="104.9" y="495"/><ellipse cx="119.9" cy="511" fill="#ADD1B2" rx="11" ry="11" style="stroke:#181818;stroke-width:1;"/><path d="M122.8688,516.6406 Q122.2906,516.9375 121.65,517.0781 Q121.0094,517.2344 120.3063,517.2344 Q117.8063,517.2344 116.4781,515.5938 Q115.1656,513.9375 115.1656,510.8125 Q115.1656,507.6875 116.4781,506.0313 Q117.8063,504.375 120.3063,504.375 Q121.0094,504.375 121.65,504.5313 Q122.3063,504.6875 122.8688,504.9844 L122.8688,507.7031 Q122.2438,507.125 121.65,506.8594 Q121.0563,506.5781 120.4313,506.5781 Q119.0875,506.5781 118.4,507.6563 Q117.7125,508.7188 117.7125,510.8125 Q117.7125,512.9063 118.4,513.9844 Q119.0875,515.0469 120.4313,515.0469 Q121.0563,515.0469 121.65,514.7813 Q122.2438,514.5 122.8688,513.9219 L122.8688,516.6406 Z " fill="#000000"/><text fill="#000000" font-family="sans-serif" font-size="14" lengthAdjust="spacing" textLength="64.21" x="133.9" y="515.8467">TestCase</text><line style="stroke:#181818;stroke-width:0.5;" x1="105.9" x2="200.11" y1="527" y2="527"/></g><!--class User--><g class="entity" data-entity="User" data-source-line="42" data-uid="ent0031" id="entity_User"><rect fill="#F1F1F1" height="40" rx="2.5" ry="2.5" style="stroke:#181818;stroke-width:0.5;" width="63.9102" x="171.04" y="128"/><ellipse cx="186.04" cy="144" fill="#ADD1B2" rx="11" ry="11" style="stroke:#181818;stroke-width:1;"/><path d="M189.0088,149.6406 Q188.4306,149.9375 187.79,150.0781 Q187.1494,150.2344 186.4463,150.2344 Q183.9463,150.2344 182.6181,148.5938 Q181.3056,146.9375 181.3056,143.8125 Q181.3056,140.6875 182.6181,139.0313 Q183.9463,137.375 186.4463,137.375 Q187.1494,137.375 187.79,137.5313 Q188.4463,137.6875 189.0088,137.9844 L189.0088,140.7031 Q188.3838,140.125 187.79,139.8594 Q187.1963,139.5781 186.5713,139.5781 Q185.2275,139.5781 184.54,140.6563 Q183.8525,141.7188 183.8525,143.8125 Q183.8525,145.9063 184.54,146.9844 Q185.2275,148.0469 186.5713,148.0469 Q187.1963,148.0469 187.79,147.7813 Q188.3838,147.5 189.0088,146.9219 L189.0088,149.6406 Z " fill="#000000"/><text fill="#000000" font-family="sans-serif" font-size="14" lengthAdjust="spacing" textLength="31.9102" x="200.04" y="148.8467">User</text><line style="stroke:#181818;stroke-width:0.5;" x1="172.04" x2="233.9502" y1="160" y2="160"/></g><!--class ProblemBundleRepository--><g class="entity" data-entity="ProblemBundleRepository" data-source-line="46" data-uid="ent0033" id="entity_ProblemBundleRepository"><rect fill="#F1F1F1" height="40" rx="2.5" ry="2.5" style="stroke:#181818;stroke-width:0.5;" width="213.6035" x="1548.2" y="392"/><ellipse cx="1563.2" cy="408" fill="#ADD1B2" rx="11" ry="11" style="stroke:#181818;stroke-width:1;"/><path d="M1566.1688,413.6406 Q1565.5906,413.9375 1564.95,414.0781 Q1564.3094,414.2344 1563.6063,414.2344 Q1561.1063,414.2344 1559.7781,412.5938 Q1558.4656,410.9375 1558.4656,407.8125 Q1558.4656,404.6875 1559.7781,403.0313 Q1561.1063,401.375 1563.6063,401.375 Q1564.3094,401.375 1564.95,401.5313 Q1565.6063,401.6875 1566.1688,401.9844 L1566.1688,404.7031 Q1565.5438,404.125 1564.95,403.8594 Q1564.3563,403.5781 1563.7313,403.5781 Q1562.3875,403.5781 1561.7,404.6563 Q1561.0125,405.7188 1561.0125,407.8125 Q1561.0125,409.9063 1561.7,410.9844 Q1562.3875,412.0469 1563.7313,412.0469 Q1564.3563,412.0469 1564.95,411.7813 Q1565.5438,411.5 1566.1688,410.9219 L1566.1688,413.6406 Z " fill="#000000"/><text fill="#000000" font-family="sans-serif" font-size="14" lengthAdjust="spacing" textLength="181.6035" x="1577.2" y="412.8467">ProblemBundleRepository</text><line style="stroke:#181818;stroke-width:0.5;" x1="1549.2" x2="1760.8035" y1="424" y2="424"/></g><!--class ProblemRepository--><g class="entity" data-entity="ProblemRepository" data-source-line="47" data-uid="ent0034" id="entity_ProblemRepository"><rect fill="#F1F1F1" height="40" rx="2.5" ry="2.5" style="stroke:#181818;stroke-width:0.5;" width="164.8633" x="1348.57" y="392"/><ellipse cx="1363.57" cy="408" fill="#ADD1B2" rx="11" ry="11" style="stroke:#181818;stroke-width:1;"/><path d="M1366.5388,413.6406 Q1365.9606,413.9375 1365.32,414.0781 Q1364.6794,414.2344 1363.9763,414.2344 Q1361.4763,414.2344 1360.1481,412.5938 Q1358.8356,410.9375 1358.8356,407.8125 Q1358.8356,404.6875 1360.1481,403.0313 Q1361.4763,401.375 1363.9763,401.375 Q1364.6794,401.375 1365.32,401.5313 Q1365.9763,401.6875 1366.5388,401.9844 L1366.5388,404.7031 Q1365.9138,404.125 1365.32,403.8594 Q1364.7263,403.5781 1364.1013,403.5781 Q1362.7575,403.5781 1362.07,404.6563 Q1361.3825,405.7188 1361.3825,407.8125 Q1361.3825,409.9063 1362.07,410.9844 Q1362.7575,412.0469 1364.1013,412.0469 Q1364.7263,412.0469 1365.32,411.7813 Q1365.9138,411.5 1366.5388,410.9219 L1366.5388,413.6406 Z " fill="#000000"/><text fill="#000000" font-family="sans-serif" font-size="14" lengthAdjust="spacing" textLength="132.8633" x="1377.57" y="412.8467">ProblemRepository</text><line style="stroke:#181818;stroke-width:0.5;" x1="1349.57" x2="1512.4333" y1="424" y2="424"/></g><!--class SubmissionRepository--><g class="entity" data-entity="SubmissionRepository" data-source-line="48" data-uid="ent0035" id="entity_SubmissionRepository"><rect fill="#F1F1F1" height="40" rx="2.5" ry="2.5" style="stroke:#181818;stroke-width:0.5;" width="187.1621" x="1796.42" y="392"/><ellipse cx="1811.42" cy="408" fill="#ADD1B2" rx="11" ry="11" style="stroke:#181818;stroke-width:1;"/><path d="M1814.3888,413.6406 Q1813.8106,413.9375 1813.17,414.0781 Q1812.5294,414.2344 1811.8263,414.2344 Q1809.3263,414.2344 1807.9981,412.5938 Q1806.6856,410.9375 1806.6856,407.8125 Q1806.6856,404.6875 1807.9981,403.0313 Q1809.3263,401.375 1811.8263,401.375 Q1812.5294,401.375 1813.17,401.5313 Q1813.8263,401.6875 1814.3888,401.9844 L1814.3888,404.7031 Q1813.7638,404.125 1813.17,403.8594 Q1812.5763,403.5781 1811.9513,403.5781 Q1810.6075,403.5781 1809.92,404.6563 Q1809.2325,405.7188 1809.2325,407.8125 Q1809.2325,409.9063 1809.92,410.9844 Q1810.6075,412.0469 1811.9513,412.0469 Q1812.5763,412.0469 1813.17,411.7813 Q1813.7638,411.5 1814.3888,410.9219 L1814.3888,413.6406 Z " fill="#000000"/><text fill="#000000" font-family="sans-serif" font-size="14" lengthAdjust="spacing" textLength="155.1621" x="1825.42" y="412.8467">SubmissionRepository</text><line style="stroke:#181818;stroke-width:0.5;" x1="1797.42" x2="1982.5821" y1="424" y2="424"/></g><!--class UserRepository--><g class="entity" data-entity="UserRepository" data-source-line="49" data-uid="ent0036" id="entity_UserRepository"><rect fill="#F1F1F1" height="40" rx="2.5" ry="2.5" style="stroke:#181818;stroke-width:0.5;" width="138.9824" x="2018.51" y="392"/><ellipse cx="2033.51" cy="408" fill="#ADD1B2" rx="11" ry="11" style="stroke:#181818;stroke-width:1;"/><path d="M2036.4788,413.6406 Q2035.9006,413.9375 2035.26,414.0781 Q2034.6194,414.2344 2033.9163,414.2344 Q2031.4163,414.2344 2030.0881,412.5938 Q2028.7756,410.9375 2028.7756,407.8125 Q2028.7756,404.6875 2030.0881,403.0313 Q2031.4163,401.375 2033.9163,401.375 Q2034.6194,401.375 2035.26,401.5313 Q2035.9163,401.6875 2036.4788,401.9844 L2036.4788,404.7031 Q2035.8538,404.125 2035.26,403.8594 Q2034.6663,403.5781 2034.0413,403.5781 Q2032.6975,403.5781 2032.01,404.6563 Q2031.3225,405.7188 2031.3225,407.8125 Q2031.3225,409.9063 2032.01,410.9844 Q2032.6975,412.0469 2034.0413,412.0469 Q2034.6663,412.0469 2035.26,411.7813 Q2035.8538,411.5 2036.4788,410.9219 L2036.4788,413.6406 Z " fill="#000000"/><text fill="#000000" font-family="sans-serif" font-size="14" lengthAdjust="spacing" textLength="106.9824" x="2047.51" y="412.8467">UserRepository</text><line style="stroke:#181818;stroke-width:0.5;" x1="2019.51" x2="2156.4924" y1="424" y2="424"/></g><!--class ProblemBundleService--><g class="entity" data-entity="ProblemBundleService" data-source-line="53" data-uid="ent0038" id="entity_ProblemBundleService"><rect fill="#F1F1F1" height="40" rx="2.5" ry="2.5" style="stroke:#181818;stroke-width:0.5;" width="190.2725" x="1962.86" y="252"/><ellipse cx="1977.86" cy="268" fill="#ADD1B2" rx="11" ry="11" style="stroke:#181818;stroke-width:1;"/><path d="M1980.8288,273.6406 Q1980.2506,273.9375 1979.61,274.0781 Q1978.9694,274.2344 1978.2663,274.2344 Q1975.7663,274.2344 1974.4381,272.5938 Q1973.1256,270.9375 1973.1256,267.8125 Q1973.1256,264.6875 1974.4381,263.0313 Q1975.7663,261.375 1978.2663,261.375 Q1978.9694,261.375 1979.61,261.5313 Q1980.2663,261.6875 1980.8288,261.9844 L1980.8288,264.7031 Q1980.2038,264.125 1979.61,263.8594 Q1979.0163,263.5781 1978.3913,263.5781 Q1977.0475,263.5781 1976.36,264.6563 Q1975.6725,265.7188 1975.6725,267.8125 Q1975.6725,269.9063 1976.36,270.9844 Q1977.0475,272.0469 1978.3913,272.0469 Q1979.0163,272.0469 1979.61,271.7813 Q1980.2038,271.5 1980.8288,270.9219 L1980.8288,273.6406 Z " fill="#000000"/><text fill="#000000" font-family="sans-serif" font-size="14" lengthAdjust="spacing" textLength="158.2725" x="1991.86" y="272.8467">ProblemBundleService</text><line style="stroke:#181818;stroke-width:0.5;" x1="1963.86" x2="2152.1325" y1="284" y2="284"/></g><!--class UserService--><g class="entity" data-entity="UserService" data-source-line="54" data-uid="ent0039" id="entity_UserService"><rect fill="#F1F1F1" height="40" rx="2.5" ry="2.5" style="stroke:#181818;stroke-width:0.5;" width="115.6514" x="2188.17" y="252"/><ellipse cx="2203.17" cy="268" fill="#ADD1B2" rx="11" ry="11" style="stroke:#181818;stroke-width:1;"/><path d="M2206.1388,273.6406 Q2205.5606,273.9375 2204.92,274.0781 Q2204.2794,274.2344 2203.5763,274.2344 Q2201.0763,274.2344 2199.7481,272.5938 Q2198.4356,270.9375 2198.4356,267.8125 Q2198.4356,264.6875 2199.7481,263.0313 Q2201.0763,261.375 2203.5763,261.375 Q2204.2794,261.375 2204.92,261.5313 Q2205.5763,261.6875 2206.1388,261.9844 L2206.1388,264.7031 Q2205.5138,264.125 2204.92,263.8594 Q2204.3263,263.5781 2203.7013,263.5781 Q2202.3575,263.5781 2201.67,264.6563 Q2200.9825,265.7188 2200.9825,267.8125 Q2200.9825,269.9063 2201.67,270.9844 Q2202.3575,272.0469 2203.7013,272.0469 Q2204.3263,272.0469 2204.92,271.7813 Q2205.5138,271.5 2206.1388,270.9219 L2206.1388,273.6406 Z " fill="#000000"/><text fill="#000000" font-family="sans-serif" font-size="14" lengthAdjust="spacing" textLength="83.6514" x="2217.17" y="272.8467">UserService</text><line style="stroke:#181818;stroke-width:0.5;" x1="2189.17" x2="2302.8214" y1="284" y2="284"/></g><!--link AuthController to UserService--><g class="link" data-entity-1="AuthController" data-entity-2="UserService" data-source-line="59" data-uid="lnk40" id="link_AuthController_UserService"><path codeLine="59" d="M1459.19,168.4 C1474.88,177.39 1494.76,187.15 1514,192 C1584.81,209.86 2102.61,183.39 2171,209 C2194.26,217.71 2211.4105,232.4977 2225.3205,247.2277" fill="none" id="AuthController-to-UserService" style="stroke:#181818;stroke-width:1;"/><polygon fill="#181818" points="2229.44,251.59,2226.169,242.3002,2226.0071,247.9547,2220.3526,247.7928,2229.44,251.59" style="stroke:#181818;stroke-width:1;"/></g><!--link ProblemController to ProblemRepository--><g class="link" data-entity-1="ProblemController" data-entity-2="ProblemRepository" data-source-line="60" data-uid="lnk41" id="link_ProblemController_ProblemRepository"><path codeLine="60" d="M1279.64,168.5 C1290.81,176.88 1302.46,187.62 1310,200 C1337.45,245.03 1309.65,269.75 1335,316 C1352.02,347.05 1377.6422,370.813 1399.6722,388.123" fill="none" id="ProblemController-to-ProblemRepository" style="stroke:#181818;stroke-width:1;"/><polygon fill="#181818" points="1404.39,391.83,1399.7846,383.1242,1400.4585,388.7408,1394.8419,389.4147,1404.39,391.83" style="stroke:#181818;stroke-width:1;"/></g><!--link ProblemBundleController to ProblemBundleService--><g class="link" data-entity-1="ProblemBundleController" data-entity-2="ProblemBundleService" data-source-line="61" data-uid="lnk42" id="link_ProblemBundleController_ProblemBundleService"><path codeLine="61" d="M1883.8,168.33 C1922.45,191.11 1981.1112,225.6832 2019.8412,248.5132" fill="none" id="ProblemBundleController-to-ProblemBundleService" style="stroke:#181818;stroke-width:1;"/><polygon fill="#181818" points="2025.01,251.56,2019.288,243.5439,2020.7026,249.021,2015.2255,250.4356,2025.01,251.56" style="stroke:#181818;stroke-width:1;"/></g><!--link SubmissionController to SubmissionRepository--><g class="link" data-entity-1="SubmissionController" data-entity-2="SubmissionRepository" data-source-line="62" data-uid="lnk43" id="link_SubmissionController_SubmissionRepository"><path codeLine="62" d="M1662.62,168.47 C1682.48,177.14 1707.02,186.58 1730,192 C1756.86,198.33 1834.8,188.26 1853,209 C1899.1,261.51 1896.8813,346.0482 1893.0313,385.5982" fill="none" id="SubmissionController-to-SubmissionRepository" style="stroke:#181818;stroke-width:1;"/><polygon fill="#181818" points="1892.45,391.57,1897.3032,382.9999,1892.9344,386.5935,1889.3408,382.2248,1892.45,391.57" style="stroke:#181818;stroke-width:1;"/></g><!--link SubmissionController to UserRepository--><g class="link" data-entity-1="SubmissionController" data-entity-2="UserRepository" data-source-line="63" data-uid="lnk44" id="link_SubmissionController_UserRepository"><path codeLine="63" d="M1662.07,168.41 C1682.02,177.17 1706.78,186.72 1730,192 C1762.93,199.49 1853.88,188.88 1881,209 C1925.87,242.3 1907.41,276.57 1947,316 C1966.93,335.85 1977.53,333.5 2001,349 C2021.74,362.7 2039.7527,375.5139 2056.8327,387.9739" fill="none" id="SubmissionController-to-UserRepository" style="stroke:#181818;stroke-width:1;"/><polygon fill="#181818" points="2061.68,391.51,2056.7665,382.9743,2057.6406,388.5632,2052.0517,389.4373,2061.68,391.51" style="stroke:#181818;stroke-width:1;"/></g><!--link SubmissionController to ProblemRepository--><g class="link" data-entity-1="SubmissionController" data-entity-2="ProblemRepository" data-source-line="64" data-uid="lnk45" id="link_SubmissionController_ProblemRepository"><path codeLine="64" d="M1664.62,168.43 C1684.2,176.72 1707.93,185.86 1730,192 C1752.35,198.22 1817.99,191.31 1833,209 C1863.77,245.26 1864.75,280.59 1833,316 C1787.93,366.26 1594.83,327 1531,349 C1503,358.65 1479.4512,373.6884 1460.1212,388.0084" fill="none" id="SubmissionController-to-ProblemRepository" style="stroke:#181818;stroke-width:1;"/><polygon fill="#181818" points="1455.3,391.58,1464.9128,389.4367,1459.3176,388.6037,1460.1507,383.0085,1455.3,391.58" style="stroke:#181818;stroke-width:1;"/></g><!--link UserController to UserService--><g class="link" data-entity-1="UserController" data-entity-2="UserService" data-source-line="65" data-uid="lnk46" id="link_UserController_UserService"><path codeLine="65" d="M2094.29,168.47 C2124.92,184.14 2163.89,204.28 2171,209 C2190.29,221.8 2205.9233,234.6663 2220.4633,247.5763" fill="none" id="UserController-to-UserService" style="stroke:#181818;stroke-width:1;"/><polygon fill="#181818" points="2224.95,251.56,2220.8758,242.5933,2221.2111,248.2403,2215.5642,248.5756,2224.95,251.56" style="stroke:#181818;stroke-width:1;"/></g><!--link AdminController to UserService--><g class="link" data-entity-1="AdminController" data-entity-2="UserService" data-source-line="66" data-uid="lnk47" id="link_AdminController_UserService"><path codeLine="66" d="M2233.38,168.33 C2236.19,191.18 2240.099,222.9947 2242.899,245.8047" fill="none" id="AdminController-to-UserService" style="stroke:#181818;stroke-width:1;"/><polygon fill="#181818" points="2243.63,251.76,2246.5037,242.3397,2243.0208,246.7973,2238.5633,243.3144,2243.63,251.76" style="stroke:#181818;stroke-width:1;"/></g><!--link AdminController to ProblemBundleService--><g class="link" data-entity-1="AdminController" data-entity-2="ProblemBundleService" data-source-line="67" data-uid="lnk48" id="link_AdminController_ProblemBundleService"><path codeLine="67" d="M2203.59,168.33 C2171.29,191.11 2122.8432,225.2719 2090.4732,248.1019" fill="none" id="AdminController-to-ProblemBundleService" style="stroke:#181818;stroke-width:1;"/><polygon fill="#181818" points="2085.57,251.56,2095.2302,249.6416,2089.656,248.6782,2090.6194,243.104,2085.57,251.56" style="stroke:#181818;stroke-width:1;"/></g><!--link UserService to UserRepository--><g class="link" data-entity-1="UserService" data-entity-2="UserRepository" data-source-line="70" data-uid="lnk49" id="link_UserService_UserRepository"><path codeLine="70" d="M2223.7,292.48 C2193.58,318.78 2144.7587,361.4227 2114.7087,387.6727" fill="none" id="UserService-to-UserRepository" style="stroke:#181818;stroke-width:1;"/><polygon fill="#181818" points="2110.19,391.62,2119.5996,388.7115,2113.9556,388.3306,2114.3365,382.6866,2110.19,391.62" style="stroke:#181818;stroke-width:1;"/></g><!--link UserService to SubmissionRepository--><g class="link" data-entity-1="UserService" data-entity-2="SubmissionRepository" data-source-line="71" data-uid="lnk50" id="link_UserService_SubmissionRepository"><path codeLine="71" d="M2217.53,292.29 C2203.96,300.69 2187.18,309.98 2171,316 C2098.86,342.84 2073.28,322.57 2001,349 C1971.36,359.84 1945.2507,374.6968 1923.5207,388.5368" fill="none" id="UserService-to-SubmissionRepository" style="stroke:#181818;stroke-width:1;"/><polygon fill="#181818" points="1918.46,391.76,1928.1999,390.299,1922.6773,389.074,1923.9023,383.5514,1918.46,391.76" style="stroke:#181818;stroke-width:1;"/></g><!--link ProblemBundleService to ProblemBundleRepository--><g class="link" data-entity-1="ProblemBundleService" data-entity-2="ProblemBundleRepository" data-source-line="72" data-uid="lnk51" id="link_ProblemBundleService_ProblemBundleRepository"><path codeLine="72" d="M2014.52,292.39 C1977.02,308.21 1921.01,329.73 1870,341 C1830.36,349.76 1818.07,337.95 1779,349 C1745.3,358.53 1715.0138,374.2046 1690.6938,388.5946" fill="none" id="ProblemBundleService-to-ProblemBundleRepository" style="stroke:#181818;stroke-width:1;"/><polygon fill="#181818" points="1685.53,391.65,1695.3126,390.5095,1689.8332,389.1039,1691.2388,383.6244,1685.53,391.65" style="stroke:#181818;stroke-width:1;"/></g><!--link ProblemBundleService to ProblemRepository--><g class="link" data-entity-1="ProblemBundleService" data-entity-2="ProblemRepository" data-source-line="73" data-uid="lnk52" id="link_ProblemBundleService_ProblemRepository"><path codeLine="73" d="M1962.59,283.08 C1929.17,290.33 1893.03,302.75 1865,324 C1858.01,329.3 1862.55,336.55 1855,341 C1823.96,359.26 1565.51,338.71 1531,349 C1502.22,357.58 1478.2775,373.094 1459.0575,387.864" fill="none" id="ProblemBundleService-to-ProblemRepository" style="stroke:#181818;stroke-width:1;"/><polygon fill="#181818" points="1454.3,391.52,1463.8736,389.2077,1458.2646,388.4733,1458.9989,382.8644,1454.3,391.52" style="stroke:#181818;stroke-width:1;"/></g><!--link SecurityConfig to JwtFilter--><g class="link" data-entity-1="SecurityConfig" data-entity-2="JwtFilter" data-source-line="76" data-uid="lnk53" id="link_SecurityConfig_JwtFilter"><path codeLine="76" d="M673,432.47 C673,450.36 673,470.72 673,488.59" fill="none" id="SecurityConfig-to-JwtFilter" style="stroke:#181818;stroke-width:1;"/><polygon fill="#181818" points="673,494.59,677,485.59,673,489.59,669,485.59,673,494.59" style="stroke:#181818;stroke-width:1;"/></g><!--link JwtFilter to JwtUtil--><g class="link" data-entity-1="JwtFilter" data-entity-2="JwtUtil" data-source-line="77" data-uid="lnk54" id="link_JwtFilter_JwtUtil"><path codeLine="77" d="M673,535.47 C673,553.36 673,573.72 673,591.59" fill="none" id="JwtFilter-to-JwtUtil" style="stroke:#181818;stroke-width:1;"/><polygon fill="#181818" points="673,597.59,677,588.59,673,592.59,669,588.59,673,597.59" style="stroke:#181818;stroke-width:1;"/></g><!--link DataSeeder to UserRepository--><g class="link" data-entity-1="DataSeeder" data-entity-2="UserRepository" data-source-line="78" data-uid="lnk55" id="link_DataSeeder_UserRepository"><path codeLine="78" d="M1263.14,292.46 C1284.14,301.4 1310.4,311.1 1335,316 C1393.87,327.73 1545.04,321.22 1605,324 C1627.02,325.02 1980.23,341.63 2001,349 C2026.52,358.06 2046.7287,372.9828 2063.2487,387.5428" fill="none" id="DataSeeder-to-UserRepository" style="stroke:#181818;stroke-width:1;"/><polygon fill="#181818" points="2067.75,391.51,2063.6429,382.5584,2063.999,388.204,2058.3533,388.56,2067.75,391.51" style="stroke:#181818;stroke-width:1;"/></g><!--link DataSeeder to ProblemRepository--><g class="link" data-entity-1="DataSeeder" data-entity-2="ProblemRepository" data-source-line="79" data-uid="lnk56" id="link_DataSeeder_ProblemRepository"><path codeLine="79" d="M1243.67,292.25 C1260.18,306.5 1283.79,325.95 1306,341 C1333.9,359.9 1361.9758,375.6245 1387.2158,388.8545" fill="none" id="DataSeeder-to-ProblemRepository" style="stroke:#181818;stroke-width:1;"/><polygon fill="#181818" points="1392.53,391.64,1386.4157,383.9189,1388.1015,389.3187,1382.7017,391.0045,1392.53,391.64" style="stroke:#181818;stroke-width:1;"/></g><!--link DataSeeder to ProblemBundleRepository--><g class="link" data-entity-1="DataSeeder" data-entity-2="ProblemBundleRepository" data-source-line="80" data-uid="lnk57" id="link_DataSeeder_ProblemBundleRepository"><path codeLine="80" d="M1266.96,292.44 C1287.41,300.68 1312.11,309.78 1335,316 C1420.25,339.15 1447.02,321.61 1531,349 C1563.61,359.63 1593.1258,374.6715 1617.5058,388.5515" fill="none" id="DataSeeder-to-ProblemBundleRepository" style="stroke:#181818;stroke-width:1;"/><polygon fill="#181818" points="1622.72,391.52,1616.8777,383.5911,1618.3748,389.0462,1612.9197,390.5433,1622.72,391.52" style="stroke:#181818;stroke-width:1;"/></g><!--link DataSeeder to SubmissionRepository--><g class="link" data-entity-1="DataSeeder" data-entity-2="SubmissionRepository" data-source-line="81" data-uid="lnk58" id="link_DataSeeder_SubmissionRepository"><path codeLine="81" d="M1264.29,292.46 C1285.14,301.18 1310.92,310.67 1335,316 C1383.29,326.69 1396.67,320.37 1446,324 C1594.02,334.89 1636.87,306.25 1779,349 C1809.86,358.28 1836.6384,373.7958 1858.2384,388.2958" fill="none" id="DataSeeder-to-SubmissionRepository" style="stroke:#181818;stroke-width:1;"/><polygon fill="#181818" points="1863.22,391.64,1857.977,383.3027,1859.0686,388.8532,1853.5181,389.9449,1863.22,391.64" style="stroke:#181818;stroke-width:1;"/></g><!--link ProblemDataInitializer to ProblemRepository--><g class="link" data-entity-1="ProblemDataInitializer" data-entity-2="ProblemRepository" data-source-line="82" data-uid="lnk59" id="link_ProblemDataInitializer_ProblemRepository"><path codeLine="82" d="M1081.63,292.46 C1101.48,300.45 1125.15,309.37 1147,316 C1211.49,335.56 1231.1,327.57 1295,349 C1329.57,360.59 1361.7966,375.4403 1388.6766,388.9203" fill="none" id="ProblemDataInitializer-to-ProblemRepository" style="stroke:#181818;stroke-width:1;"/><polygon fill="#181818" points="1394.04,391.61,1387.7881,383.9999,1389.5705,389.3686,1384.2018,391.1511,1394.04,391.61" style="stroke:#181818;stroke-width:1;"/></g><!--link RequestLoggingFilter to SecurityConfig--><g class="link" data-entity-1="RequestLoggingFilter" data-entity-2="SecurityConfig" data-source-line="83" data-uid="lnk60" id="link_RequestLoggingFilter_SecurityConfig"><path codeLine="83" d="M673,292.48 C673,318.78 673,359.37 673,385.62" fill="none" id="RequestLoggingFilter-to-SecurityConfig" style="stroke:#181818;stroke-width:1;stroke-dasharray:7.0,7.0;"/><polygon fill="#181818" points="673,391.62,677,382.62,673,386.62,669,382.62,673,391.62" style="stroke:#181818;stroke-width:1;"/><text fill="#000000" font-family="sans-serif" font-size="13" lengthAdjust="spacing" textLength="82.6528" x="674" y="337.0669">registered in</text></g><!--link CorsConfig to SecurityConfig--><g class="link" data-entity-1="CorsConfig" data-entity-2="SecurityConfig" data-source-line="84" data-uid="lnk61" id="link_CorsConfig_SecurityConfig"><path codeLine="84" d="M828,292.39 C810.41,306.03 786.3,324.67 765,341 C742.54,358.22 721.6898,374.0832 703.1998,388.1132" fill="none" id="CorsConfig-to-SecurityConfig" style="stroke:#181818;stroke-width:1;stroke-dasharray:7.0,7.0;"/><polygon fill="#181818" points="698.42,391.74,708.0075,389.4863,702.4031,388.7176,703.1718,383.1133,698.42,391.74" style="stroke:#181818;stroke-width:1;"/><text fill="#000000" font-family="sans-serif" font-size="13" lengthAdjust="spacing" textLength="82.6528" x="787" y="337.0669">registered in</text></g><!--link AuthController to LoginRequest--><g class="link" data-entity-1="AuthController" data-entity-2="LoginRequest" data-source-line="87" data-uid="lnk62" id="link_AuthController_LoginRequest"><path codeLine="87" d="M1426.78,168.33 C1424.16,191.18 1420.5021,222.9889 1417.8921,245.7989" fill="none" id="AuthController-to-LoginRequest" style="stroke:#181818;stroke-width:1;stroke-dasharray:7.0,7.0;"/><polygon fill="#181818" points="1417.21,251.76,1422.2072,243.2731,1417.7784,246.7924,1414.2591,242.3636,1417.21,251.76" style="stroke:#181818;stroke-width:1;"/></g><!--link AuthController to RegisterRequest--><g class="link" data-entity-1="AuthController" data-entity-2="RegisterRequest" data-source-line="88" data-uid="lnk63" id="link_AuthController_RegisterRequest"><path codeLine="88" d="M1454.19,168.33 C1483.88,191.11 1528.15,225.0772 1557.9,247.9072" fill="none" id="AuthController-to-RegisterRequest" style="stroke:#181818;stroke-width:1;stroke-dasharray:7.0,7.0;"/><polygon fill="#181818" points="1562.66,251.56,1557.9552,242.9075,1558.6934,248.516,1553.0849,249.2542,1562.66,251.56" style="stroke:#181818;stroke-width:1;"/></g><!--link AuthController to JwtResponse--><g class="link" data-entity-1="AuthController" data-entity-2="JwtResponse" data-source-line="89" data-uid="lnk64" id="link_AuthController_JwtResponse"><path codeLine="89" d="M1460.54,168.44 C1476.08,177.1 1495.43,186.55 1514,192 C1584.74,212.76 1610.73,181.17 1679,209 C1702.39,218.53 1720.1925,233.1525 1734.8525,247.5725" fill="none" id="AuthController-to-JwtResponse" style="stroke:#181818;stroke-width:1;stroke-dasharray:7.0,7.0;"/><polygon fill="#181818" points="1739.13,251.78,1735.5187,242.6171,1735.5654,248.2738,1729.9087,248.3204,1739.13,251.78" style="stroke:#181818;stroke-width:1;"/></g><!--reverse link ProblemBundle to Problem--><g class="link" data-entity-1="ProblemBundle" data-entity-2="Problem" data-source-line="92" data-uid="lnk65" id="link_ProblemBundle_Problem"><path codeLine="92" d="M400.0575,298.1149 C384.0275,306.9749 374.37,310.82 355,316 C341.45,319.62 239.54,314.74 229,324 C210.04,340.65 208.39,371.67 209.66,391.82" fill="none" id="ProblemBundle-backto-Problem" style="stroke:#181818;stroke-width:1;"/><polygon fill="none" points="410.56,292.31,403.3738,291.7116,400.0575,298.1149,407.2437,298.7133,410.56,292.31" style="stroke:#181818;stroke-width:1;"/><text fill="#000000" font-family="sans-serif" font-size="13" lengthAdjust="spacing" textLength="8.271" x="392.6318" y="312.2171">1</text><text fill="#000000" font-family="sans-serif" font-size="13" lengthAdjust="spacing" textLength="6.5" x="202.1661" y="380.7754">*</text></g><!--reverse link Problem to TestCase--><g class="link" data-entity-1="Problem" data-entity-2="TestCase" data-source-line="93" data-uid="lnk66" id="link_Problem_TestCase"><path codeLine="93" d="M194.5717,442.8343 C184.1317,460.7243 174.78,476.72 164.34,494.59" fill="none" id="Problem-backto-TestCase" style="stroke:#181818;stroke-width:1;"/><polygon fill="none" points="200.62,432.47,194.1411,435.6361,194.5717,442.8343,201.0506,439.6682,200.62,432.47" style="stroke:#181818;stroke-width:1;"/><text fill="#000000" font-family="sans-serif" font-size="13" lengthAdjust="spacing" textLength="8.271" x="188.5242" y="452.0717">1</text><text fill="#000000" font-family="sans-serif" font-size="13" lengthAdjust="spacing" textLength="6.5" x="160.7545" y="483.8259">*</text></g><!--reverse link Problem to Parameter--><g class="link" data-entity-1="Problem" data-entity-2="Parameter" data-source-line="94" data-uid="lnk67" id="link_Problem_Parameter"><path codeLine="94" d="M234.1224,442.0153 C247.7524,459.9053 260.58,476.72 274.2,494.59" fill="none" id="Problem-backto-Parameter" style="stroke:#181818;stroke-width:1;"/><polygon fill="none" points="226.85,432.47,227.3044,439.6668,234.1224,442.0153,233.6679,434.8185,226.85,432.47" style="stroke:#181818;stroke-width:1;"/><text fill="#000000" font-family="sans-serif" font-size="13" lengthAdjust="spacing" textLength="8.271" x="221.8036" y="452.0717">1</text><text fill="#000000" font-family="sans-serif" font-size="13" lengthAdjust="spacing" textLength="6.5" x="263.2632" y="483.8259">*</text></g><!--reverse link User to Submission--><g class="link" data-entity-1="User" data-entity-2="Submission" data-source-line="95" data-uid="lnk68" id="link_User_Submission"><path codeLine="95" d="M184.6165,178.5162 C170.3865,201.3662 153.19,228.95 138.99,251.76" fill="none" id="User-backto-Submission" style="stroke:#181818;stroke-width:1;"/><polygon fill="none" points="190.96,168.33,184.3928,171.3086,184.6165,178.5162,191.1836,175.5376,190.96,168.33" style="stroke:#181818;stroke-width:1;"/><text fill="#000000" font-family="sans-serif" font-size="13" lengthAdjust="spacing" textLength="8.271" x="178.687" y="187.8941">1</text><text fill="#000000" font-family="sans-serif" font-size="13" lengthAdjust="spacing" textLength="6.5" x="135.5874" y="241.0437">*</text></g><!--link Submission to Problem--><g class="link" data-entity-1="Submission" data-entity-2="Problem" data-source-line="96" data-uid="lnk69" id="link_Submission_Problem"><path codeLine="96" d="M139,292.48 C155.2,318.78 180.7431,360.2615 196.9131,386.5115" fill="none" id="Submission-to-Problem" style="stroke:#181818;stroke-width:1;"/><polygon fill="#181818" points="200.06,391.62,198.7454,381.8593,197.4376,387.3629,191.934,386.0551,200.06,391.62" style="stroke:#181818;stroke-width:1;"/><text fill="#000000" font-family="sans-serif" font-size="13" lengthAdjust="spacing" textLength="6.5" x="135.4846" y="312.0844">*</text><text fill="#000000" font-family="sans-serif" font-size="13" lengthAdjust="spacing" textLength="8.271" x="187.6162" y="380.8643">1</text></g><!--reverse link User to Subscription--><g class="link" data-entity-1="User" data-entity-2="Subscription" data-source-line="97" data-uid="lnk70" id="link_User_Subscription"><path codeLine="97" d="M221.1654,178.5522 C235.2154,201.4022 252.15,228.95 266.17,251.76" fill="none" id="User-backto-Subscription" style="stroke:#181818;stroke-width:1;"/><polygon fill="none" points="214.88,168.33,214.6153,175.5362,221.1654,178.5522,221.4301,171.346,214.88,168.33" style="stroke:#181818;stroke-width:1;"/><text fill="#000000" font-family="sans-serif" font-size="13" lengthAdjust="spacing" textLength="8.271" x="209.0355" y="187.8941">1</text><text fill="#000000" font-family="sans-serif" font-size="13" lengthAdjust="spacing" textLength="8.271" x="253.7549" y="241.0437">1</text></g><!--link CoderzClubApplication to SecurityConfig--><g class="link" data-entity-1="CoderzClubApplication" data-entity-2="SecurityConfig" data-source-line="100" data-uid="lnk71" id="link_CoderzClubApplication_SecurityConfig"><path codeLine="100" d="M742.4,157.42 C672.87,165.76 587.2,181.39 565,209 C535.2,246.06 545.41,272.67 565,316 C579.92,348.99 607.5451,371.8421 633.0651,388.2721" fill="none" id="CoderzClubApplication-to-SecurityConfig" style="stroke:#181818;stroke-width:1;stroke-dasharray:7.0,7.0;"/><polygon fill="#181818" points="638.11,391.52,632.708,383.2848,633.9059,388.8134,628.3774,390.0113,638.11,391.52" style="stroke:#181818;stroke-width:1;"/></g><!--link CoderzClubApplication to DataSeeder--><g class="link" data-entity-1="CoderzClubApplication" data-entity-2="DataSeeder" data-source-line="101" data-uid="lnk72" id="link_CoderzClubApplication_DataSeeder"><path codeLine="101" d="M933.74,155.27 C996.79,162.31 1079.8,177.26 1147,209 C1169,219.39 1185.7208,233.4839 1199.8708,247.5239" fill="none" id="CoderzClubApplication-to-DataSeeder" style="stroke:#181818;stroke-width:1;stroke-dasharray:7.0,7.0;"/><polygon fill="#181818" points="1204.13,251.75,1200.5586,242.5715,1200.5807,248.2283,1194.9239,248.2504,1204.13,251.75" style="stroke:#181818;stroke-width:1;"/></g><!--SRC=[bLR1Rfmm4Btp5ICkaIfjsbnxY9JigcggIer2yW5UcB2Z69lQ9kscwhztO5cmmQ3qjEoyD_QRPpF31MnrWUPjAvizRE1Mv2-e2jXAOItiI9H6L8bz8LKBVeAQSL5YveuImM3kX2ebUeIyJRnnpj2-SNYNQvNH6yAdv405GeNke0kR9FqwaEQwkimx1JahIE5F0gSrF5qtTIqf5uwqIlukvlAZUgOoNCBORHSTGZlXH8R8IKFeso_tXQGB8q-EvF3_tkYznAhDlLFaI4YkQQG_uCy6hVkkov9KELahmxmnv8wzZdNzpcWfqVWrt1GLgUq0ZV767IBXNkfjemg9otW4oPfzHTQooH7moQBnmYjL54xxyjdA1xIrLXQ761j5gZVDCx4aoyQTuojRLFme_Ktkswk7Rbvct9P8oNx8vePgvmSVMT1MU1MqTgmfD5XhIqwROo3J5_4mKAPu11c5Hi1MZ1TUaSN4LyfnKLDsmeELpp5UzWA-KddOI7n52GNMt2XGvOGMHALL2L8SqLYcZJV5zZpG2lgLxCT1BAScuJs6pUOws7PsNpl6tAc5U- -pmnfZrxrZHxrUP4_CN-JD5OUlrApmoNl_BZnQA9_7sNdlC88pyDQD5JM5emx5zfwB-ey4ZtgwKjm-UUJ8RWxO9EohNUBOo8UdSxnhvsFlZrKvGUSgueHPNHFQcbcJWRAmRsoymENbzMIqm6TsvzH3iG1IoJZztiDcZtUFFw2nt3YcBsMR7ZJj23xjtn6AFmlQxNGbI47NpRs33No5z2e5lTb0-Y4Tcdh_6s13Yuw1utneppo0l14mFdP8UnWjyxnhc7gLXgE2w_4-Ks2ljRFEYDg2Eo1ajU6ZWtR2us-NH3zj8eUqGlI-O_u1]--></g></svg>